<?xml version="1.0" encoding="UTF-8"?>
<svg version="1.1" xmlns="http://www.w3.org/2000/svg" width="245" height="229">
<path d="M0 0 C6.44922707 5.22667794 10.59833378 10.93243753 12.8125 18.9375 C12.874375 19.618125 12.93625 20.29875 13 21 C11.05663221 22.94336779 7.7079005 22.30633393 5.125 22.375 C3.86945313 22.42398438 2.61390625 22.47296875 1.3203125 22.5234375 C-2 22 -2 22 -3.82421875 19.64453125 C-4.21222656 18.77183594 -4.60023438 17.89914063 -5 17 C-7.38009603 13.69857648 -9.17273946 11.50356664 -13 10 C-12.505 10.78375 -12.01 11.5675 -11.5 12.375 C-10 15 -10 15 -10 17 C-11.93681161 17.08107583 -13.8745934 17.13922475 -15.8125 17.1875 C-16.89144531 17.22230469 -17.97039062 17.25710937 -19.08203125 17.29296875 C-22 17 -22 17 -23.76171875 15.55078125 C-24.17035156 15.03902344 -24.57898438 14.52726562 -25 14 C-28.06429776 12.46785112 -30.6165642 12.77061452 -34 13 C-37.16450889 14.33612598 -38.58081219 15.28139232 -40.3125 18.25 C-41.50713074 23.02852296 -41.49660587 26.68399444 -39.75 31.3125 C-37.87533377 34.19145171 -37.27033252 35.11612635 -34 36 C-30.1050843 36.44169147 -27.06359194 36.57270335 -23.5625 34.6875 C-21.76313043 32.97690387 -21.76313043 32.97690387 -21 30 C-24.3 30 -27.6 30 -31 30 C-31 27.69 -31 25.38 -31 23 C-23.74 23 -16.48 23 -9 23 C-9 30.64807365 -9.72082825 34.57825557 -14.9765625 40.0625 C-20.4516129 45 -20.4516129 45 -23 45 C-22.67475419 47.94819935 -22.67475419 47.94819935 -21 51 C-18.17239677 52.67057521 -15.12877983 53.54131433 -12 54.5 C-10.26316478 55.08651439 -8.5287423 55.68022476 -6.796875 56.28125 C-5.96478516 56.57 -5.13269531 56.85875 -4.27539062 57.15625 C4.85157148 60.54066857 13.15853763 66.53666191 17.4375 75.4375 C20.38413363 83.79267328 20.43314243 94.17362902 17.375 102.5 C11.81051438 114.05551717 3.01635756 120.75666346 -9 125 C-15.80366098 127.11148099 -22.15198234 127.33385384 -29.25 127.3125 C-30.30574219 127.32861328 -31.36148438 127.34472656 -32.44921875 127.36132812 C-46.17734148 127.36972967 -59.80699757 123.79440958 -70.10546875 114.29296875 C-75.09619676 108.25264433 -79 100.8526724 -79 93 C-73.39 93 -67.78 93 -62 93 C-61.0234375 95.31119792 -60.046875 97.62239583 -59.0703125 99.93359375 C-58.1755063 102.15746715 -58.1755063 102.15746715 -56 103 C-55.9175 101.741875 -55.835 100.48375 -55.75 99.1875 C-54.34657263 85.65307713 -51.48062883 73.03236753 -45 61 C-46.32064453 60.83177734 -46.32064453 60.83177734 -47.66796875 60.66015625 C-56.73038217 58.86467223 -64.82016756 52.68194382 -71 46 C-76.21076952 38.06845572 -77.28338181 29.51995429 -75.46484375 20.28125 C-72.95987081 11.19216786 -67.76617416 3.37421232 -59.5234375 -1.44921875 C-41.33528858 -10.17638531 -17.35750355 -11.81657208 0 0 Z M-57 14 C-60.4891725 18.57953891 -60.63222231 23.42865618 -60.47265625 29.02734375 C-59.55969802 34.76917195 -56.42427796 38.06719359 -51.99609375 41.59765625 C-48.35574112 44.07751696 -45.54227906 45.7097311 -41 45 C-41.721875 44.34 -42.44375 43.68 -43.1875 43 C-48.11655412 38.08498877 -52.0413357 32.00861662 -52.375 24.9375 C-52.34667661 19.17841114 -49.81700789 14.88589238 -47 10 C-46.67 9.34 -46.34 8.68 -46 8 C-50.75282051 8 -53.5654336 10.90889024 -57 14 Z M-38 69 C-38.90373918 74.42243506 -39.05766117 75.96973723 -37.56640625 80.8359375 C-37.24736328 81.89941406 -36.92832031 82.96289062 -36.59960938 84.05859375 C-36.25736328 85.15300781 -35.91511719 86.24742187 -35.5625 87.375 C-35.22412109 88.49261719 -34.88574219 89.61023438 -34.53710938 90.76171875 C-33.70277108 93.51150976 -32.8567872 96.2571373 -32 99 C-28.48263148 95.48263148 -27.73558213 90.36741539 -26.3125 85.6875 C-25.97927734 84.64142578 -25.64605469 83.59535156 -25.30273438 82.51757812 C-24.99271484 81.50501953 -24.68269531 80.49246094 -24.36328125 79.44921875 C-23.93462769 78.06222778 -23.93462769 78.06222778 -23.49731445 76.6472168 C-22.75505124 73.60497739 -22.75505124 73.60497739 -24 69 C-28.62 69 -33.24 69 -38 69 Z M-12 73 C-10.02 83.56 -8.04 94.12 -6 105 C-1.98483056 105.46431692 -1.98483056 105.46431692 0.125 102.9375 C3.7491863 97.25960813 4.51344394 92.0158651 3.671875 85.43359375 C2.23461607 80.22770821 -1.40818128 77.17491382 -5.625 74.0625 C-8.17490679 72.72775596 -8.17490679 72.72775596 -12 73 Z M-44 91 C-44.99 97.6 -45.98 104.2 -47 111 C-42.05 111.99 -42.05 111.99 -37 113 C-38.93883047 102.35567281 -38.93883047 102.35567281 -42 92 C-42.66 91.67 -43.32 91.34 -44 91 Z M-20 91 C-22.97 101.89 -22.97 101.89 -26 113 C-20.51257291 113.01415292 -20.51257291 113.01415292 -16 111 C-16.15837359 104.17775284 -17.37561727 97.60582309 -19 91 C-19.33 91 -19.66 91 -20 91 Z " fill="#76438A" transform="translate(138,66)"/>
<path d="M0 0 C0.62648437 0.15597656 1.25296875 0.31195313 1.8984375 0.47265625 C2.71570313 0.66730469 3.53296875 0.86195312 4.375 1.0625 C5.59316406 1.35833984 5.59316406 1.35833984 6.8359375 1.66015625 C9.04161284 2.22109319 9.04161284 2.22109319 11 1 C12.8125 1.43383789 12.8125 1.43383789 15 2.22265625 C15.80018555 2.51076172 16.60037109 2.79886719 17.42480469 3.09570312 C18.27461914 3.41474609 19.12443359 3.73378906 20 4.0625 C20.86270508 4.38541016 21.72541016 4.70832031 22.61425781 5.04101562 C33.50687024 9.22384454 44.15547779 14.45015764 49.4375 25.4375 C52.38413363 33.79267328 52.43314243 44.17362902 49.375 52.5 C43.81051438 64.05551717 35.01635756 70.75666346 23 75 C16.19633902 77.11148099 9.84801766 77.33385384 2.75 77.3125 C1.69425781 77.32861328 0.63851562 77.34472656 -0.44921875 77.36132812 C-14.17734148 77.36972967 -27.80699757 73.79440958 -38.10546875 64.29296875 C-43.09619676 58.25264433 -47 50.8526724 -47 43 C-41.39 43 -35.78 43 -30 43 C-28.99088542 45.31119792 -27.98177083 47.62239583 -26.97265625 49.93359375 C-26.16877677 51.94410117 -26.16877677 51.94410117 -25 53 C-24.90176004 54.47648876 -24.87026481 55.95775417 -24.875 57.4375 C-24.87113281 58.64212891 -24.87113281 58.64212891 -24.8671875 59.87109375 C-25 62 -25 62 -26 64 C-22.7 64 -19.4 64 -16 64 C-16 63.34 -16 62.68 -16 62 C-14.37509046 61.97301811 -12.75005367 61.95361243 -11.125 61.9375 C-10.22007813 61.92589844 -9.31515625 61.91429687 -8.3828125 61.90234375 C-6 62 -6 62 -4 63 C2.21259268 63.29583775 7.65462382 62.6229971 13.71484375 61.2421875 C14.46894531 61.16226563 15.22304687 61.08234375 16 61 C16.66 61.66 17.32 62.32 18 63 C20.20250992 63.46006346 20.20250992 63.46006346 22.625 63.625 C23.44226563 63.69976562 24.25953125 63.77453125 25.1015625 63.8515625 C25.72804688 63.90054688 26.35453125 63.94953125 27 64 C26.896875 62.7625 26.79375 61.525 26.6875 60.25 C26.6796875 58.01171875 26.6796875 58.01171875 27 56 C28.63604196 54.62926214 30.30678061 53.29944744 32 52 C35.31089069 45.96543319 35.78170384 39.59681486 34 33 C31.21068591 28.1651889 28.48735622 26.68519103 23.5 24.3125 C17.74000291 21.41306827 15.94110638 18.11600631 13.70703125 12.1953125 C13.35705078 11.10863281 13.35705078 11.10863281 13 10 C10.69 10 8.38 10 6 10 C6 10.66 6 11.32 6 12 C2.7 12 -0.6 12 -4 12 C-3.52309796 10.37433394 -3.04340334 8.74948689 -2.5625 7.125 C-2.29566406 6.22007813 -2.02882812 5.31515625 -1.75390625 4.3828125 C-1 2 -1 2 0 0 Z " fill="#FCDEB2" transform="translate(106,116)"/>
<path d="M0 0 C6.44922707 5.22667794 10.59833378 10.93243753 12.8125 18.9375 C12.874375 19.618125 12.93625 20.29875 13 21 C11.05663221 22.94336779 7.7079005 22.30633393 5.125 22.375 C3.86945313 22.42398438 2.61390625 22.47296875 1.3203125 22.5234375 C-2 22 -2 22 -3.83984375 19.6328125 C-4.22269531 18.76398438 -4.60554688 17.89515625 -5 17 C-9.88997766 9.75558865 -17.60349187 5.85962932 -26 4 C-34.97499049 2.45258785 -43.10066879 6.0638761 -51 10 C-55.12479908 12.97712771 -57.34222172 15.11391666 -59 20 C-59.83623762 25.93728712 -60.05785636 31.31252748 -56.625 36.4375 C-52.87683995 40.73003568 -48.15807782 42.80398667 -43 45 C-41.66216247 45.65758116 -40.32716127 46.32112949 -39 47 C-39.78175515 51.84688192 -41.39844278 56.3766367 -43 61 C-53.574464 60.60096362 -61.45060472 54.9258351 -69.125 48.02734375 C-75.02913298 41.64349997 -76.42822478 34.3040093 -76.25390625 25.84375 C-75.37675174 16.01961945 -71.1464435 8.4580349 -64.1015625 1.66796875 C-47.24316744 -11.71220725 -17.54410335 -11.94360475 0 0 Z " fill="#FBDEB2" transform="translate(138,66)"/>
<path d="M0 0 C3.5 0.625 3.5 0.625 6.4375 2.5625 C8.8227045 6.10416728 9.27807309 8.13544359 9.07421875 12.33203125 C8.07289238 16.33052498 5.46250044 18.8829237 2.5 21.625 C2.17 20.635 1.84 19.645 1.5 18.625 C1.974375 17.92375 2.44875 17.2225 2.9375 16.5 C5.10070447 12.51970377 4.7609506 9.06116017 4.5 4.625 C2.1704053 4.12258678 2.1704053 4.12258678 -0.5 4.625 C-6.52122611 11.98427635 -5.92991144 19.47688437 -5.5 28.625 C-5.02203301 31.7297073 -4.33696742 34.59099312 -3.5 37.625 C-3.22285156 37.05394531 -2.94570312 36.48289063 -2.66015625 35.89453125 C3.62819529 23.59307588 12.38197681 16.87590372 25.5 12.625 C29.14908376 11.77265927 32.78556983 11.11489532 36.5 10.625 C39.73434818 15.47652228 39.03971994 20.60891797 38.03515625 26.22265625 C35.56889918 35.66448066 30.63996073 41.34067317 22.55078125 46.59375 C20.5 47.625 20.5 47.625 17.5 47.625 C17.5 48.285 17.5 48.945 17.5 49.625 C18.61375 49.686875 19.7275 49.74875 20.875 49.8125 C28.93657396 50.85593067 35.40514524 54.67053597 40.44140625 60.9765625 C43.32447009 65.46605674 43.10156373 70.50832871 42.5 75.625 C40.36752938 83.10191979 37.40755279 89.59572086 32.5 95.625 C19.70786779 91.40720369 10.53456565 84.08784049 3.32421875 72.78125 C2.16870172 69.75828601 2.31056043 67.09697872 2.375 63.875 C2.39304688 62.70453125 2.41109375 61.5340625 2.4296875 60.328125 C2.45289063 59.43609375 2.47609375 58.5440625 2.5 57.625 C1.89639648 57.36412598 1.29279297 57.10325195 0.67089844 56.83447266 C-1.66831518 55.53122656 -2.68497291 54.43066412 -4.234375 52.2734375 C-4.96624023 51.25576294 -4.96624023 51.25576294 -5.71289062 50.2175293 C-6.22013672 49.48574463 -6.72738281 48.75395996 -7.25 48 C-7.77787109 47.24307861 -8.30574219 46.48615723 -8.84960938 45.70629883 C-15.99229521 35.2347821 -22.86237878 23.14850861 -25.5 10.625 C-25.17 9.635 -24.84 8.645 -24.5 7.625 C-22.52026561 11.24969022 -20.54130876 14.87480438 -18.5625 18.5 C-17.99853516 19.53253906 -17.43457031 20.56507812 -16.85351562 21.62890625 C-16.31533203 22.61503906 -15.77714844 23.60117187 -15.22265625 24.6171875 C-14.47640991 25.98399658 -14.47640991 25.98399658 -13.71508789 27.37841797 C-12.95556443 28.78270467 -12.21398838 30.19702324 -11.5 31.625 C-11.55220703 29.94083984 -11.55220703 29.94083984 -11.60546875 28.22265625 C-11.99781338 10.38591265 -11.99781338 10.38591265 -6.25 2.5625 C-3.5 0.625 -3.5 0.625 0 0 Z M26.5 19.625 C26.83 20.615 27.16 21.605 27.5 22.625 C26.943125 22.95371094 26.38625 23.28242187 25.8125 23.62109375 C15.23102529 30.21664133 9.54495264 38.33118557 4.5 49.625 C4.17 47.975 3.84 46.325 3.5 44.625 C1.2338502 47.82427031 1.34889343 50.49948481 1.96875 54.2890625 C4.7979026 66.7290129 10.45397222 75.21458549 21.12109375 82.25 C23.82803061 83.81460062 26.45453453 84.90370555 29.5 85.625 C29.5 84.635 29.5 83.645 29.5 82.625 C29.53480469 81.83867188 29.56960937 81.05234375 29.60546875 80.2421875 C29.88443257 70.91682552 28.47070715 63.99922402 21.98828125 57.06640625 C18.76065248 53.71162657 18.76065248 53.71162657 14.5 52.625 C14.83 51.635 15.16 50.645 15.5 49.625 C15.5 48.965 15.5 48.305 15.5 47.625 C17.04024238 46.18175762 18.633461 44.79473867 20.25 43.4375 C26.16988118 38.21997761 29.51833499 33.38652129 31.5 25.625 C31.66798469 22.37455291 31.66798469 22.37455291 31.5 19.625 C29.85 19.625 28.2 19.625 26.5 19.625 Z M14.5 24.625 C14.17 25.285 13.84 25.945 13.5 26.625 C14.49 26.295 15.48 25.965 16.5 25.625 C15.84 25.295 15.18 24.965 14.5 24.625 Z M10.5 27.625 C8.94303587 29.57401196 8.94303587 29.57401196 7.4375 32 C6.91027344 32.81210937 6.38304687 33.62421875 5.83984375 34.4609375 C3.57517031 38.11874824 3.40623882 40.3119855 3.5 44.625 C4.57965525 42.47068791 5.65339947 40.31377608 6.71875 38.15234375 C7.35296875 36.87037109 7.35296875 36.87037109 8 35.5625 C8.4228125 34.70527344 8.845625 33.84804688 9.28125 32.96484375 C10.5 30.625 10.5 30.625 12.5 27.625 C11.84 27.625 11.18 27.625 10.5 27.625 Z M25.5 55.625 C25.90992188 56.15867188 26.31984375 56.69234375 26.7421875 57.2421875 C30.83187654 62.89730775 32.66257124 67.70899349 33.5 74.625 C33.83 74.625 34.16 74.625 34.5 74.625 C35.5031614 69.609193 35.72940433 66.28648178 33.5 61.625 C30.88051141 58.60251317 29.30804192 56.89434731 25.5 55.625 Z " fill="#D0D0C1" transform="translate(152.5,18.375)"/>
<path d="M0 0 C1.85772162 0.08984301 3.71247985 0.24611861 5.5625 0.4375 C7.08037109 0.59025391 7.08037109 0.59025391 8.62890625 0.74609375 C9.80259766 0.87177734 9.80259766 0.87177734 11 1 C13.93894633 8.5793879 16.4503648 16.28218533 19 24 C21.31 16.41 23.62 8.82 26 1 C30.29 1 34.58 1 39 1 C39.86562176 5.24791599 40.71962213 9.49796407 41.56347656 13.75024414 C41.85140021 15.19292196 42.1423501 16.63499957 42.43652344 18.07641602 C44.00291086 25.76183729 45.42313246 33.11034269 45 41 C38.1640625 41.1953125 38.1640625 41.1953125 36 41 C33.72742516 38.72742516 33.62554222 37.94668159 33.1484375 34.8671875 C33.01953125 34.06152344 32.890625 33.25585938 32.7578125 32.42578125 C32.63148437 31.58402344 32.50515625 30.74226563 32.375 29.875 C32.2409375 29.02550781 32.106875 28.17601562 31.96875 27.30078125 C31.63855014 25.20165356 31.31832741 23.10096089 31 21 C28.51613809 25.73874279 27.37165834 30.72837765 26 35.8828125 C25 39 25 39 23 41 C20.8359375 41.1953125 20.8359375 41.1953125 18.375 41.125 C17.55773437 41.10695312 16.74046875 41.08890625 15.8984375 41.0703125 C15.27195312 41.04710937 14.64546875 41.02390625 14 41 C11.12584134 33.81460335 9.06148777 26.45065632 7 19 C6.79503906 20.20398438 6.59007813 21.40796875 6.37890625 22.6484375 C6.10693641 24.22398692 5.83479193 25.79950621 5.5625 27.375 C5.42779297 28.1690625 5.29308594 28.963125 5.15429688 29.78125 C4.11328125 35.7734375 4.11328125 35.7734375 3 38 C3.99 38.33 4.98 38.66 6 39 C4.68 39 3.36 39 2 39 C2 39.66 2 40.32 2 41 C-1.3 41 -4.6 41 -8 41 C-7.03668685 31.22309045 -5.43989179 21.67971196 -3.4375 12.0625 C-3.21553955 10.99 -2.9935791 9.9175 -2.76489258 8.8125 C-1.13142533 1.13142533 -1.13142533 1.13142533 0 0 Z " fill="#78448D" transform="translate(88,139)"/>
<path d="M0 0 C2.74181936 4.1661411 1.57956199 9.74203667 0.734375 14.42578125 C-1.71753619 23.86855826 -6.66224435 29.5472595 -14.74609375 34.796875 C-16.796875 35.828125 -16.796875 35.828125 -19.796875 35.828125 C-19.796875 36.488125 -19.796875 37.148125 -19.796875 37.828125 C-18.683125 37.89 -17.569375 37.951875 -16.421875 38.015625 C-8.36030104 39.05905567 -1.89172976 42.87366097 3.14453125 49.1796875 C6.02567111 53.66618573 5.81028322 58.71450358 5.203125 63.828125 C3.19548783 70.68621357 0.58335684 77.15004669 -3.796875 82.828125 C-6.734375 82.078125 -6.734375 82.078125 -9.796875 80.828125 C-10.421875 78.828125 -10.421875 78.828125 -10.796875 76.828125 C-12.7806517 75.54375766 -12.7806517 75.54375766 -14.796875 74.828125 C-11.331875 73.838125 -11.331875 73.838125 -7.796875 72.828125 C-8.044375 71.838125 -8.044375 71.838125 -8.296875 70.828125 C-8.796875 67.828125 -8.796875 67.828125 -8.671875 64.078125 C-8.61453099 57.99966016 -10.34933635 52.3309003 -14.109375 47.515625 C-16.7243193 44.71715746 -16.7243193 44.71715746 -20.046875 42.703125 C-22.796875 40.828125 -22.796875 40.828125 -23.46875 38.7109375 C-23.57703125 38.08960938 -23.6853125 37.46828125 -23.796875 36.828125 C-22.97703125 36.126875 -22.1571875 35.425625 -21.3125 34.703125 C-11.90047681 26.49050236 -7.75069565 20.37371024 -5.796875 7.828125 C-7.776875 8.488125 -9.756875 9.148125 -11.796875 9.828125 C-12.796875 8.828125 -12.796875 8.828125 -12.921875 5.890625 C-12.796875 2.828125 -12.796875 2.828125 -11.796875 0.828125 C-9.6171875 0.08984375 -9.6171875 0.08984375 -6.921875 -0.484375 C-5.59542969 -0.78794922 -5.59542969 -0.78794922 -4.2421875 -1.09765625 C-1.796875 -1.171875 -1.796875 -1.171875 0 0 Z M-11.796875 43.828125 C-11.38695312 44.36179688 -10.97703125 44.89546875 -10.5546875 45.4453125 C-6.46499846 51.10043275 -4.63430376 55.91211849 -3.796875 62.828125 C-3.466875 62.828125 -3.136875 62.828125 -2.796875 62.828125 C-1.7937136 57.812318 -1.56747067 54.48960678 -3.796875 49.828125 C-6.41636359 46.80563817 -7.98883308 45.09747231 -11.796875 43.828125 Z " fill="#E1D5B8" transform="translate(189.796875,30.171875)"/>
<path d="M0 0 C2.62527189 -0.05382106 5.24944713 -0.09358313 7.875 -0.125 C8.62136719 -0.14175781 9.36773437 -0.15851563 10.13671875 -0.17578125 C12.09194461 -0.1933959 14.04742021 -0.10320189 16 0 C18 2 18 2 18 7 C14.7 6.01 11.4 5.02 8 4 C7.566875 5.85625 7.566875 5.85625 7.125 7.75 C6.38848592 10.90648893 5.50052409 12.99895182 4 16 C7.3 16 10.6 16 14 16 C14 15.34 14 14.68 14 14 C17.465 13.505 17.465 13.505 21 13 C25 21 25 21 26.0078125 23.140625 C26.97355252 25.16752119 26.97355252 25.16752119 29 27 C28 28 28 28 25.49609375 28.09765625 C24.48675781 28.08605469 23.47742188 28.07445312 22.4375 28.0625 C21.42558594 28.05347656 20.41367188 28.04445312 19.37109375 28.03515625 C18.19740234 28.01775391 18.19740234 28.01775391 17 28 C16.505 25.525 16.505 25.525 16 23 C11.38 23 6.76 23 2 23 C1.67 24.65 1.34 26.3 1 28 C-2.3 28 -5.6 28 -9 28 C-8.40895235 23.15340923 -7.02055843 19.39251833 -5 15 C-4.34 15 -3.68 15 -3 15 C-2.814375 13.39125 -2.814375 13.39125 -2.625 11.75 C-2.08909822 8.5345893 -1.44598512 6.79557123 0 4 C0 2.68 0 1.36 0 0 Z " fill="#77B06A" transform="translate(98,112)"/>
<path d="M0 0 C3.5 0.625 3.5 0.625 6.4375 2.5625 C8.8227045 6.10416728 9.27807309 8.13544359 9.07421875 12.33203125 C8.07289238 16.33052498 5.46250044 18.8829237 2.5 21.625 C2.17 20.635 1.84 19.645 1.5 18.625 C1.974375 17.92375 2.44875 17.2225 2.9375 16.5 C5.10070447 12.51970377 4.7609506 9.06116017 4.5 4.625 C2.1704053 4.12258678 2.1704053 4.12258678 -0.5 4.625 C-6.4897189 11.94576755 -6.05622343 19.51220617 -5.5 28.625 C-4.72334925 33.02752606 -3.70135165 37.32015658 -2.5 41.625 C-4.16666667 41.625 -5.83333333 41.625 -7.5 41.625 C-6.984375 42.388125 -6.46875 43.15125 -5.9375 43.9375 C-5.463125 44.824375 -4.98875 45.71125 -4.5 46.625 C-4.83 47.615 -5.16 48.605 -5.5 49.625 C-14.40921299 38.44109433 -22.51977221 24.77521544 -25.5 10.625 C-25.17 9.635 -24.84 8.645 -24.5 7.625 C-22.52026561 11.24969022 -20.54130876 14.87480438 -18.5625 18.5 C-17.99853516 19.53253906 -17.43457031 20.56507812 -16.85351562 21.62890625 C-16.31533203 22.61503906 -15.77714844 23.60117187 -15.22265625 24.6171875 C-14.47640991 25.98399658 -14.47640991 25.98399658 -13.71508789 27.37841797 C-12.95556443 28.78270467 -12.21398838 30.19702324 -11.5 31.625 C-11.55220703 29.94083984 -11.55220703 29.94083984 -11.60546875 28.22265625 C-11.99781338 10.38591265 -11.99781338 10.38591265 -6.25 2.5625 C-3.5 0.625 -3.5 0.625 0 0 Z " fill="#BDC7C0" transform="translate(152.5,18.375)"/>
<path d="M0 0 C11.82517483 4.2960373 11.82517483 4.2960373 15 8 C14 9 14 9 11.49609375 9.09765625 C9.98208984 9.08025391 9.98208984 9.08025391 8.4375 9.0625 C7.42558594 9.05347656 6.41367188 9.04445312 5.37109375 9.03515625 C4.19740234 9.01775391 4.19740234 9.01775391 3 9 C2.67 7.35 2.34 5.7 2 4 C-2.62 4 -7.24 4 -12 4 C-12.33 5.65 -12.66 7.3 -13 9 C-16.3 9 -19.6 9 -23 9 C-22.45119974 5.06693147 -21.74199701 1.58646443 -20 -2 C-14.68350582 -4.65824709 -5.50348952 -1.6258334 0 0 Z " fill="#1A9C79" transform="translate(112,131)"/>
<path d="M0 0 C0.99 0.33 1.98 0.66 3 1 C2.67 1.78375 2.34 2.5675 2 3.375 C0.88133489 5.84332497 0.88133489 5.84332497 1 8 C1.66 8.66 2.32 9.32 3 10 C3.66 9.67 4.32 9.34 5 9 C5.33 9.99 5.66 10.98 6 12 C5.67 12.66 5.34 13.32 5 14 C5.99 14 6.98 14 8 14 C7.85923685 15.9587043 7.7122324 17.91696093 7.5625 19.875 C7.48128906 20.96554688 7.40007812 22.05609375 7.31640625 23.1796875 C7 26 7 26 6 28 C6.99 28.33 7.98 28.66 9 29 C7.68 29 6.36 29 5 29 C5 29.66 5 30.32 5 31 C1.7 31 -1.6 31 -5 31 C-3.83100289 20.53403763 -2.21936179 10.29783869 0 0 Z " fill="#764689" transform="translate(85,149)"/>
<path d="M0 0 C2.73772038 4.16880149 1.62329932 9.78900973 0.6640625 14.453125 C-0.64313993 18.94214432 -0.64313993 18.94214432 -1.796875 20.83203125 C-3.90625 21.578125 -3.90625 21.578125 -5.796875 21.83203125 C-7.14225 19.14128125 -6.51216769 17.80009872 -5.859375 14.89453125 C-5.2311011 12.06937908 -4.796875 9.7379104 -4.796875 6.83203125 C-6.446875 7.16203125 -8.096875 7.49203125 -9.796875 7.83203125 C-9.796875 8.49203125 -9.796875 9.15203125 -9.796875 9.83203125 C-10.786875 9.50203125 -11.776875 9.17203125 -12.796875 8.83203125 C-12.921875 3.08203125 -12.921875 3.08203125 -11.796875 0.83203125 C-9.6171875 0.09375 -9.6171875 0.09375 -6.921875 -0.48046875 C-6.03757813 -0.68285156 -5.15328125 -0.88523437 -4.2421875 -1.09375 C-1.796875 -1.16796875 -1.796875 -1.16796875 0 0 Z " fill="#E8D8B7" transform="translate(189.796875,30.16796875)"/>
<path d="M0 0 C0.495 1.485 0.495 1.485 1 3 C-0.06927734 2.67515625 -0.06927734 2.67515625 -1.16015625 2.34375 C-10.52606278 -0.40167093 -10.52606278 -0.40167093 -20 1 C-20 0.34 -20 -0.32 -20 -1 C-24.08547841 -0.14552086 -27.78818612 0.6410373 -30.640625 3.83984375 C-31.8865463 5.85508393 -32.97864341 7.86294464 -34 10 C-34.56460938 10.98033203 -34.56460938 10.98033203 -35.140625 11.98046875 C-36.69103806 15.62393945 -35.80685615 19.22155171 -35 23 C-33.46950378 26.75667253 -31.90199663 29.22991231 -29 32 C-28.67 32.99 -28.34 33.98 -28 35 C-31.38256721 33.60802671 -32.83688682 32.1974504 -34.6875 29.0625 C-35.10386719 28.37285156 -35.52023438 27.68320313 -35.94921875 26.97265625 C-38.39436306 22.38232956 -38.68667742 18.07985226 -38 13 C-35.76580036 6.49963466 -32.76019667 1.76176109 -27 -2 C-18.32112462 -6.14219052 -8.24748494 -4.47549546 0 0 Z " fill="#735182" transform="translate(123,73)"/>
<path d="M0 0 C0.93972656 0.23396484 0.93972656 0.23396484 1.8984375 0.47265625 C3.12433594 0.76462891 3.12433594 0.76462891 4.375 1.0625 C5.59316406 1.35833984 5.59316406 1.35833984 6.8359375 1.66015625 C9.04161284 2.22109319 9.04161284 2.22109319 11 1 C11.36122881 2.31057393 11.71380311 3.62353624 12.0625 4.9375 C12.25972656 5.66839844 12.45695312 6.39929688 12.66015625 7.15234375 C12.77230469 7.76207031 12.88445312 8.37179688 13 9 C12 10 12 10 8.9375 10.0625 C7.968125 10.041875 6.99875 10.02125 6 10 C6 10.66 6 11.32 6 12 C2.7 12 -0.6 12 -4 12 C-3.52309796 10.37433394 -3.04340334 8.74948689 -2.5625 7.125 C-2.29566406 6.22007813 -2.02882813 5.31515625 -1.75390625 4.3828125 C-1 2 -1 2 0 0 Z " fill="#86B16F" transform="translate(106,116)"/>
<path d="M0 0 C6.27 0 12.54 0 19 0 C19 2.31 19 4.62 19 7 C16.69 8.32 14.38 9.64 12 11 C11.67 9.02 11.34 7.04 11 5 C7.37 5 3.74 5 0 5 C0 3.35 0 1.7 0 0 Z " fill="#7A4290" transform="translate(108,90)"/>
<path d="M0 0 C3.04512904 2.00848937 4.62660716 3.48662749 5.515625 7.08984375 C5.86964686 11.79672526 5.0778554 14.45826553 2 18.0625 C1.02061634 19.06228748 0.02711118 20.04931078 -1 21 C-1.33 20.01 -1.66 19.02 -2 18 C-1.525625 17.29875 -1.05125 16.5975 -0.5625 15.875 C1.60070447 11.89470377 1.2609506 8.43616017 1 4 C-1.3295947 3.49758678 -1.3295947 3.49758678 -4 4 C-6.47516927 7.11164137 -8.33633121 10.39538428 -10 14 C-11.50892455 10.47917605 -12.11589476 8.54786613 -11.3125 4.75 C-8.81141297 -0.49037282 -5.36167636 -0.64709887 0 0 Z " fill="#C9C9BF" transform="translate(156,19)"/>
<path d="M0 0 C4.30764815 1.56641751 8.06171464 3.68336156 12 6 C10.02 6.99 10.02 6.99 8 8 C8.66 8.61875 9.32 9.2375 10 9.875 C12 12 12 12 12 14 C13.65 14.33 15.3 14.66 17 15 C16.67 15.66 16.34 16.32 16 17 C13.71973688 15.95475389 11.45234462 14.89025365 9.1875 13.8125 C8.54490234 13.52052734 7.90230469 13.22855469 7.24023438 12.92773438 C3.11751461 10.94113884 0.79982254 9.254126 -1 5 C-0.6875 2.1875 -0.6875 2.1875 0 0 Z " fill="#D5D2C0" transform="translate(168,97)"/>
<path d="M0 0 C4.31545118 6.47317677 4.24392462 14.43833683 4 22 C2.54257537 22.08096803 1.08387193 22.13917774 -0.375 22.1875 C-1.18710938 22.22230469 -1.99921875 22.25710937 -2.8359375 22.29296875 C-3.55007812 22.19628906 -4.26421875 22.09960938 -5 22 C-5.66 21.01 -6.32 20.02 -7 19 C-6.34 19 -5.68 19 -5 19 C-5 18.34 -5 17.68 -5 17 C-4.34 17 -3.68 17 -3 17 C-2.690625 16.360625 -2.38125 15.72125 -2.0625 15.0625 C-1 13 -1 13 0 12 C0.07244053 9.98035801 0.08377188 7.95832876 0.0625 5.9375 C0.05347656 4.83277344 0.04445312 3.72804687 0.03515625 2.58984375 C0.02355469 1.73519531 0.01195312 0.88054687 0 0 Z " fill="#7C4F86" transform="translate(129,158)"/>
<path d="M0 0 C1.77127815 2.83404505 2.45860221 5.77353208 3.25 9 C-1.62424327 8.00178896 -6.1317951 6.87224523 -10.75 5 C-12.7424325 4.62406934 -14.7418674 4.28020455 -16.75 4 C-16.75 3.34 -16.75 2.68 -16.75 2 C-13.78 2 -10.81 2 -7.75 2 C-7.75 1.34 -7.75 0.68 -7.75 0 C-2.32198444 -1.32684825 -2.32198444 -1.32684825 0 0 Z " fill="#7EB06A" transform="translate(119.75,126)"/>
<path d="M0 0 C13.28152741 5.97350993 13.28152741 5.97350993 17 12 C17.9375 14.75 17.9375 14.75 18 17 C16 19 16 19 14 20 C13.75765625 19.40832031 13.5153125 18.81664063 13.265625 18.20703125 C10.06070912 10.65082572 6.92578402 6.56472128 0 2 C0 1.34 0 0.68 0 0 Z " fill="#DAD0B7" transform="translate(167,69)"/>
<path d="M0 0 C4.29 0 8.58 0 13 0 C13.99 5.94 14.98 11.88 16 18 C15.34 17.67 14.68 17.34 14 17 C13.40644386 14.35139573 13.25790731 11.70802678 13 9 C12.01 8.67 11.02 8.34 10 8 C10 6.02 10 4.04 10 2 C7.36 1.67 4.72 1.34 2 1 C2 3.31 2 5.62 2 8 C0.02 8.99 0.02 8.99 -2 10 C-1.54177532 6.53058454 -1.10868317 3.32604951 0 0 Z " fill="#6C5182" transform="translate(114,140)"/>
<path d="M0 0 C2.29141286 -0.05384521 4.58318188 -0.09272087 6.875 -0.125 C8.78925781 -0.15980469 8.78925781 -0.15980469 10.7421875 -0.1953125 C14 0 14 0 16 2 C16.125 4.625 16.125 4.625 16 7 C13.51623494 6.41118927 11.0391414 5.80497632 8.5625 5.1875 C7.85544922 5.02185547 7.14839844 4.85621094 6.41992188 4.68554688 C4.58598132 4.22048061 2.78817399 3.6181087 1 3 C0.67 2.01 0.34 1.02 0 0 Z " fill="#289D79" transform="translate(100,112)"/>
<path d="M0 0 C0.66 0 1.32 0 2 0 C2.50833591 1.24663331 3.00631145 2.49749387 3.5 3.75 C3.7784375 4.44609375 4.056875 5.1421875 4.34375 5.859375 C5 8 5 8 5 12 C2.03 12 -0.94 12 -4 12 C-3.52309796 10.37433394 -3.04340334 8.74948689 -2.5625 7.125 C-2.29566406 6.22007813 -2.02882813 5.31515625 -1.75390625 4.3828125 C-1 2 -1 2 0 0 Z " fill="#F2E0AD" transform="translate(106,116)"/>
<path d="M0 0 C0.721875 0.309375 1.44375 0.61875 2.1875 0.9375 C4.92439324 2.06363366 4.92439324 2.06363366 7.625 2.5 C10 3 10 3 13 5 C12.34 6.65 11.68 8.3 11 10 C8.03 9.505 8.03 9.505 5 9 C4.87625 8.071875 4.87625 8.071875 4.75 7.125 C4.18741541 4.81562433 4.18741541 4.81562433 1.9375 3.75 C1.298125 3.5025 0.65875 3.255 0 3 C0 2.01 0 1.02 0 0 Z " fill="#7A4390" transform="translate(89,98)"/>
<path d="M0 0 C1.32 0.66 2.64 1.32 4 2 C3.01 2 2.02 2 1 2 C1 2.66 1 3.32 1 4 C2.7634375 4.1546875 2.7634375 4.1546875 4.5625 4.3125 C8.82485903 4.82914958 12.14087534 6.1508361 16 8 C14.68 9.32 13.36 10.64 12 12 C7.05 9.36 2.1 6.72 -3 4 C-2.01 2.68 -1.02 1.36 0 0 Z " fill="#D8CDB3" transform="translate(169,64)"/>
<path d="M0 0 C0.33 0.66 0.66 1.32 1 2 C1.5775 1.649375 2.155 1.29875 2.75 0.9375 C5.4388193 -0.18284138 6.31641572 -0.0063441 9 1 C10.3479743 1.63654342 11.68596724 2.29605388 13 3 C8.01114635 6.25802687 5.1226631 7.48020887 -1 7 C-1.66 7 -2.32 7 -3 7 C-3.99 6.67 -4.98 6.34 -6 6 C-5.195625 5.566875 -4.39125 5.13375 -3.5625 4.6875 C-0.72153646 3.19525998 -0.72153646 3.19525998 0 0 Z " fill="#D7CCB5" transform="translate(169,38)"/>
<path d="M0 0 C3.63 0.33 7.26 0.66 11 1 C12.71118281 5.40018438 14.31640386 9.81351856 15.75 14.3125 C16.01296875 15.13363281 16.2759375 15.95476562 16.546875 16.80078125 C17 19 17 19 16 22 C13.29417212 18.16674383 12.67386382 15.67461851 13 11 C11.68 10.34 10.36 9.68 9 9 C9.66 8.01 10.32 7.02 11 6 C10.34 5.01 9.68 4.02 9 3 C7.02252878 2.63702064 7.02252878 2.63702064 4.875 2.8125 C3.59625 2.874375 2.3175 2.93625 1 3 C0.67 3.66 0.34 4.32 0 5 C-0.66 4.67 -1.32 4.34 -2 4 C-1.34 2.68 -0.68 1.36 0 0 Z " fill="#734B83" transform="translate(88,139)"/>
<path d="M0 0 C0.474375 0.763125 0.94875 1.52625 1.4375 2.3125 C4.84486807 5.88608115 8.31425707 6.76849064 13 8 C11.68 8.33 10.36 8.66 9 9 C9 9.66 9 10.32 9 11 C5.7 11 2.4 11 -1 11 C-0.67 7.37 -0.34 3.74 0 0 Z " fill="#B8817E" transform="translate(81,169)"/>
<path d="M0 0 C1.875 0.3125 1.875 0.3125 4 1 C4.66 1.99 5.32 2.98 6 4 C2.25 7 2.25 7 0 7 C-0.33 7.66 -0.66 8.32 -1 9 C-5.95 8.67 -10.9 8.34 -16 8 C-16 7.34 -16 6.68 -16 6 C-10.72 6 -5.44 6 0 6 C-0.33 4.68 -0.66 3.36 -1 2 C-0.67 1.34 -0.34 0.68 0 0 Z " fill="#625382" transform="translate(115,104)"/>
<path d="M0 0 C0.99 0.99 1.98 1.98 3 3 C2.01 3 1.02 3 0 3 C0.33 3.99 0.66 4.98 1 6 C0.01 7.485 0.01 7.485 -1 9 C-4.625 9.1875 -4.625 9.1875 -8 9 C-7.34 6.69 -6.68 4.38 -6 2 C-4.7934375 1.7834375 -4.7934375 1.7834375 -3.5625 1.5625 C-1.07896294 1.25864751 -1.07896294 1.25864751 0 0 Z " fill="#04A377" transform="translate(98,130)"/>
<path d="M0 0 C0.66 0.33 1.32 0.66 2 1 C1.72510809 5.03174806 1.46508424 6.56894631 -1.5625 9.375 C-2.366875 9.91125 -3.17125 10.4475 -4 11 C-4 9.68 -4 8.36 -4 7 C-6.97 7 -9.94 7 -13 7 C-9.89188006 3.89188006 -9.11358654 3.52738289 -5 3 C-4.34 3 -3.68 3 -3 3 C-2.01 2.67 -1.02 2.34 0 2 C0 1.34 0 0.68 0 0 Z " fill="#714485" transform="translate(125,96)"/>
<path d="M0 0 C4.28180901 3.96282037 6.83314545 8.66403627 7.25 14.5 C7.1675 15.325 7.085 16.15 7 17 C7.66 17 8.32 17 9 17 C9 18.32 9 19.64 9 21 C8.34 21 7.68 21 7 21 C3.92163279 14.05604954 1.37179687 7.48252838 0 0 Z " fill="#B9C1C2" transform="translate(127,26)"/>
<path d="M0 0 C1.5 1.1875 1.5 1.1875 3 3 C3.1875 5.6875 3.1875 5.6875 3 8 C3.66 8.33 4.32 8.66 5 9 C5.60526769 11.10250883 6.11117491 13.23415951 6.5625 15.375 C7.60156636 20.2362751 7.60156636 20.2362751 9 25 C11.64 25.33 14.28 25.66 17 26 C17 26.33 17 26.66 17 27 C14.03 27 11.06 27 8 27 C4.51811461 18.29528654 1.70297099 9.22732239 0 0 Z " fill="#6E4C83" transform="translate(94,153)"/>
<path d="M0 0 C0.66 0.33 1.32 0.66 2 1 C2.66 1 3.32 1 4 1 C2.45454854 6.47932789 -0.15543212 11.11429181 -3 16 C-3.33 16 -3.66 16 -4 16 C-3.65697965 10.01488629 -3.17692157 5.24882694 0 0 Z " fill="#CDCCC0" transform="translate(160,53)"/>
<path d="M0 0 C5.28 0 10.56 0 16 0 C16 0.33 16 0.66 16 1 C11.59085217 2.10228696 7.51617599 2.07654536 3 2 C3 4.64 3 7.28 3 10 C-0.00617269 6.99382731 0.40414684 4.17618402 0 0 Z " fill="#F5DFC2" transform="translate(59,159)"/>
<path d="M0 0 C6.14154225 0.58490879 12.00679849 1.54066252 18 3 C18 3.33 18 3.66 18 4 C8.58997722 4.18451025 8.58997722 4.18451025 4 3 C3.01 4.485 3.01 4.485 2 6 C2 5.34 2 4.68 2 4 C1.01 4 0.02 4 -1 4 C-0.67 2.68 -0.34 1.36 0 0 Z " fill="#13A26D" transform="translate(94,128)"/>
<path d="M0 0 C3.8236732 0.98879702 7.52077393 2.11199892 11 4 C11.33 4.99 11.66 5.98 12 7 C8.37 6.01 4.74 5.02 1 4 C1 3.34 1 2.68 1 2 C-3.62 2 -8.24 2 -13 2 C-8.68498016 -0.87667989 -5.06612923 -0.57680209 0 0 Z " fill="#9E7086" transform="translate(112,69)"/>
<path d="M0 0 C0.33 0 0.66 0 1 0 C1.82787319 8.92263326 0.72019298 14.93126412 -5 22 C-5.66 22.33 -6.32 22.66 -7 23 C-7.66 23.99 -8.32 24.98 -9 26 C-9.3125 23.75 -9.3125 23.75 -9 21 C-8.236875 20.4225 -7.47375 19.845 -6.6875 19.25 C-2.92853492 16.10295947 -1.99114403 12.71784557 -1 8 C-0.83727454 5.62948589 -0.90085353 3.3795154 -1 1 C-0.67 0.67 -0.34 0.34 0 0 Z " fill="#FAE2C1" transform="translate(142,151)"/>
<path d="M0 0 C0.66 0 1.32 0 2 0 C2.33 0.66 2.66 1.32 3 2 C4.64363134 2.72159424 6.31050386 3.39351421 8 4 C7.67 4.66 7.34 5.32 7 6 C5.68 5.67 4.36 5.34 3 5 C2.67 5.99 2.34 6.98 2 8 C1.34 8 0.68 8 0 8 C-0.33 9.98 -0.66 11.96 -1 14 C-1.66 14 -2.32 14 -3 14 C-2.48459954 10.2203966 -1.69179906 7.38359812 0 4 C0 2.68 0 1.36 0 0 Z " fill="#83B074" transform="translate(98,112)"/>
<path d="M0 0 C0.66 0 1.32 0 2 0 C2.64771508 1.91603157 3.29309948 3.83285113 3.9375 5.75 C4.47697266 7.35101563 4.47697266 7.35101563 5.02734375 8.984375 C5.77982119 11.31735725 6.44977244 13.61374995 7 16 C5.35 15.67 3.7 15.34 2 15 C2 11.37 2 7.74 2 4 C1.01 3.67 0.02 3.34 -1 3 C-0.67 2.01 -0.34 1.02 0 0 Z " fill="#BFC2B7" transform="translate(153,72)"/>
<path d="M0 0 C0 1.98 0 3.96 0 6 C-1.45742463 6.08096803 -2.91612807 6.13917774 -4.375 6.1875 C-5.18710938 6.22230469 -5.99921875 6.25710937 -6.8359375 6.29296875 C-7.55007812 6.19628906 -8.26421875 6.09960938 -9 6 C-9.66 5.01 -10.32 4.02 -11 3 C-9.63875 2.814375 -9.63875 2.814375 -8.25 2.625 C-5.61021364 2.11734878 -2.53000861 0 0 0 Z " fill="#B4807F" transform="translate(133,174)"/>
<path d="M0 0 C0.763125 0.20625 1.52625 0.4125 2.3125 0.625 C1.52875 1.181875 0.745 1.73875 -0.0625 2.3125 C-3.75202838 5.56279881 -4.64673638 8.94156372 -5.6875 13.625 C-7.19642455 10.10417605 -7.80339476 8.17286613 -7 4.375 C-5.30020768 0.81353038 -4.04593205 -0.56454866 0 0 Z " fill="#CFD2C6" transform="translate(151.6875,19.375)"/>
<path d="M0 0 C0.433125 0.598125 0.86625 1.19625 1.3125 1.8125 C4.3861413 5.79684983 6.10551982 7.32950335 11.1875 8.1875 C12.08855469 8.34605469 12.98960938 8.50460938 13.91796875 8.66796875 C14.94857422 8.83232422 14.94857422 8.83232422 16 9 C16 9.33 16 9.66 16 10 C5.85623727 10.53180892 5.85623727 10.53180892 1 7 C0.01 7 -0.98 7 -2 7 C-1.34 4.69 -0.68 2.38 0 0 Z " fill="#623B6F" transform="translate(96,94)"/>
<path d="M0 0 C3.96 0 7.92 0 12 0 C12 0.99 12 1.98 12 3 C10.56260487 3.02712066 9.12506137 3.04645067 7.6875 3.0625 C6.48673828 3.07990234 6.48673828 3.07990234 5.26171875 3.09765625 C3 3 3 3 0 2 C0 1.34 0 0.68 0 0 Z " fill="#15A574" transform="translate(101,113)"/>
<path d="M0 0 C0 0.33 0 0.66 0 1 C-3.3 1.66 -6.6 2.32 -10 3 C-10 2.34 -10 1.68 -10 1 C-14.455 1.495 -14.455 1.495 -19 2 C-14.31546743 -2.68453257 -6.03038577 -0.90734971 0 0 Z " fill="#845180" transform="translate(113,71)"/>
<path d="M0 0 C1.32 0.66 2.64 1.32 4 2 C3.01 2 2.02 2 1 2 C1 2.66 1 3.32 1 4 C3.97 4.495 3.97 4.495 7 5 C6.67 5.66 6.34 6.32 6 7 C2.17902761 6.46930939 -0.06171403 5.50298434 -3 3 C-2.01 2.01 -1.02 1.02 0 0 Z " fill="#C8C2B2" transform="translate(169,64)"/>
<path d="M0 0 C0.66 0.33 1.32 0.66 2 1 C2 1.66 2 2.32 2 3 C2.66 3 3.32 3 4 3 C4 3.99 4 4.98 4 6 C4.99 6.33 5.98 6.66 7 7 C6.01 7.495 6.01 7.495 5 8 C1.34952803 6.26602582 -0.55609075 4.80666984 -2 1 C-1.34 0.67 -0.68 0.34 0 0 Z " fill="#7E487F" transform="translate(84,169)"/>
<path d="M0 0 C0.66 0 1.32 0 2 0 C3.6875 2.375 3.6875 2.375 5 5 C4.67 5.66 4.34 6.32 4 7 C1.03 6.505 1.03 6.505 -2 6 C-1.34 4.02 -0.68 2.04 0 0 Z " fill="#774E82" transform="translate(123,76)"/>
<path d="M0 0 C-6.49976102 2.71975816 -11.04952816 3.21357445 -18 2 C-18 1.67 -18 1.34 -18 1 C-15.56348622 0.63737003 -13.12623023 0.28461036 -10.6875 -0.0625 C-9.99720703 -0.16626953 -9.30691406 -0.27003906 -8.59570312 -0.37695312 C-5.30415164 -0.83808836 -3.19783876 -1.06594625 0 0 Z " fill="#F4D1BF" transform="translate(121,179)"/>
<path d="M0 0 C0.66 0.99 1.32 1.98 2 3 C1.25 6.625 1.25 6.625 0 10 C-0.99 10.495 -0.99 10.495 -2 11 C-1.85957123 9.35369672 -1.71250671 7.70795821 -1.5625 6.0625 C-1.48128906 5.14597656 -1.40007812 4.22945312 -1.31640625 3.28515625 C-1 1 -1 1 0 0 Z " fill="#C6C7B8" transform="translate(158,58)"/>
<path d="M0 0 C1.25127906 3.54667178 0.72285053 5.72253438 -0.4375 9.25 C-0.72496094 10.14203125 -1.01242188 11.0340625 -1.30859375 11.953125 C-1.53675781 12.62859375 -1.76492187 13.3040625 -2 14 C-2.33 14 -2.66 14 -3 14 C-3.32374517 8.49633208 -3.53286034 4.56327794 0 0 Z " fill="#6D4B7B" transform="translate(116,160)"/>
<path d="M0 0 C3 3.75 3 3.75 3 6 C5.64 6.33 8.28 6.66 11 7 C11 7.33 11 7.66 11 8 C8.03 8 5.06 8 2 8 C0 4 0 4 0 0 Z " fill="#7F547F" transform="translate(100,172)"/>
<path d="M0 0 C0.66 0 1.32 0 2 0 C2.99 3.3 3.98 6.6 5 10 C4.34 10 3.68 10 3 10 C2.67 8.02 2.34 6.04 2 4 C1.34 4 0.68 4 0 4 C-0.33 4.66 -0.66 5.32 -1 6 C-0.67 4.02 -0.34 2.04 0 0 Z " fill="#DFDCA7" transform="translate(106,116)"/>
<path d="M0 0 C4.455 1.98 4.455 1.98 9 4 C8.67 5.32 8.34 6.64 8 8 C6.66102417 7.04956626 5.32894573 6.08940853 4 5.125 C3.2575 4.59132813 2.515 4.05765625 1.75 3.5078125 C1.1725 3.01023437 0.595 2.51265625 0 2 C0 1.34 0 0.68 0 0 Z " fill="#CFC7B4" transform="translate(167,69)"/>
<path d="M0 0 C0.68707555 2.49064888 1 4.37886292 1 7 C-0.98 7.99 -0.98 7.99 -3 9 C-2.25 2.25 -2.25 2.25 0 0 Z " fill="#6C457D" transform="translate(115,141)"/>
<path d="M0 0 C2.97 0.495 2.97 0.495 6 1 C6.33 1.99 6.66 2.98 7 4 C6.01 5.485 6.01 5.485 5 7 C4.34 7 3.68 7 3 7 C2.814375 5.824375 2.814375 5.824375 2.625 4.625 C2.20882007 1.85942178 2.20882007 1.85942178 0 0 Z " fill="#6EB269" transform="translate(109,117)"/>
<path d="M0 0 C2.52259061 1.97420135 2.9929808 2.96745642 3.6875 6.1875 C3.790625 7.115625 3.89375 8.04375 4 9 C3.01 9.66 2.02 10.32 1 11 C0 8 0 8 0.9375 5.8125 C1.288125 5.214375 1.63875 4.61625 2 4 C1.34 4 0.68 4 0 4 C0 2.68 0 1.36 0 0 Z " fill="#CCD4D5" transform="translate(134,39)"/>
<path d="M0 0 C0.99 0.495 0.99 0.495 2 1 C2.6328125 3.28515625 2.6328125 3.28515625 3.125 6.0625 C3.29257813 6.98160156 3.46015625 7.90070313 3.6328125 8.84765625 C3.75398438 9.55792969 3.87515625 10.26820313 4 11 C2 9.4375 2 9.4375 0 7 C-0.25 3.25 -0.25 3.25 0 0 Z " fill="#704781" transform="translate(101,150)"/>
<path d="M0 0 C2 2 2 2 2.125 5.625 C2.08375 6.73875 2.0425 7.8525 2 9 C1.01 9.33 0.02 9.66 -1 10 C-0.67 6.7 -0.34 3.4 0 0 Z " fill="#D7D1BD" transform="translate(182,92)"/>
<path d="M0 0 C1.32 1.32 2.64 2.64 4 4 C2 6 2 6 -1 8 C-1.625 5.6875 -1.625 5.6875 -2 3 C-1.34 2.01 -0.68 1.02 0 0 Z " fill="#DAD7C8" transform="translate(162,49)"/>
<path d="M0 0 C3.63 0.33 7.26 0.66 11 1 C9 3 9 3 7.0546875 3.1953125 C5.03645833 3.13020833 3.01822917 3.06510417 1 3 C0.67 3.66 0.34 4.32 0 5 C-0.66 4.67 -1.32 4.34 -2 4 C-1.34 2.68 -0.68 1.36 0 0 Z " fill="#585478" transform="translate(88,139)"/>
<path d="M0 0 C3.3125 -0.25 3.3125 -0.25 7 0 C7.99 1.32 8.98 2.64 10 4 C6.7 3.01 3.4 2.02 0 1 C0 0.67 0 0.34 0 0 Z " fill="#5FB272" transform="translate(112,131)"/>
<path d="M0 0 C3.16717283 1.58358642 4.73268318 2.45263699 6.3125 5.6875 C6.539375 6.450625 6.76625 7.21375 7 8 C3.64379729 6.61122646 1.92701272 5.08322035 0 2 C0 1.34 0 0.68 0 0 Z " fill="#694677" transform="translate(88,100)"/>
<path d="M0 0 C-6 4 -6 4 -10 4 C-10 3.34 -10 2.68 -10 2 C-6.49223216 0.39644899 -3.85645121 -0.22036864 0 0 Z " fill="#E6CAB6" transform="translate(99,70)"/>
<path d="M0 0 C-1.175625 0.5878125 -1.175625 0.5878125 -2.375 1.1875 C-5.35156418 3.24274669 -5.98823563 4.59679258 -7 8 C-7.88492145 5.52221994 -8.11637742 4.33943414 -7.25 1.8125 C-5.09546211 -1.31157994 -3.43399009 -1.14466336 0 0 Z " fill="#603E6F" transform="translate(104,79)"/>
<path d="M0 0 C1.14926266 0.95421808 2.29430541 1.91352045 3.4375 2.875 C4.07558594 3.40867188 4.71367187 3.94234375 5.37109375 4.4921875 C7 6 7 6 8 8 C4.63820226 6.55922954 2.40843732 4.75249979 0 2 C0 1.34 0 0.68 0 0 Z " fill="#F3DDBC" transform="translate(144,129)"/>
<path d="M0 0 C2.97 0.495 2.97 0.495 6 1 C6.33 2.32 6.66 3.64 7 5 C6.01 5.495 6.01 5.495 5 6 C4.67 5.01 4.34 4.02 4 3 C1.98491642 2.26676204 1.98491642 2.26676204 0 2 C0 1.34 0 0.68 0 0 Z " fill="#E2D6B4" transform="translate(92,111)"/>
<path d="M0 0 C1.85776765 3.13498292 2.20140476 5.37471432 2 9 C1.34 9 0.68 9 0 9 C-0.87890625 2.84765625 -0.87890625 2.84765625 -1 1 C-0.67 0.67 -0.34 0.34 0 0 Z " fill="#C5CEC7" transform="translate(144,43)"/>
</svg>
